<?xml version="1.0" encoding="UTF-8"?>
<svg id="Layer_2" data-name="Layer 2" xmlns="http://www.w3.org/2000/svg" xmlns:xlink="http://www.w3.org/1999/xlink" viewBox="0 0 439.53 261.56">
  <defs>
    <style>
      .cls-1 {
        filter: url(#drop-shadow-1);
      }

      .cls-2 {
        fill: #68d8dd;
      }

      .cls-3 {
        fill: #fff;
      }

      .cls-4 {
        fill: #d9f4f3;
      }
    </style>
    <filter id="drop-shadow-1" x="23.19" y="117.49" width="45.69" height="63.61" filterUnits="userSpaceOnUse">
      <feOffset dx="4.34" dy="1.09"/>
      <feGaussianBlur result="blur" stdDeviation="4.34"/>
      <feFlood flood-color="#000" flood-opacity=".13"/>
      <feComposite in2="blur" operator="in"/>
      <feComposite in="SourceGraphic"/>
    </filter>
  </defs>
  <g id="Layer_1-2" data-name="Layer 1">
    <g>
      <g>
        <path class="cls-4" d="M398.33,20.57h-10.2c-5.7,0-10.31,4.62-10.31,10.31s4.62,10.31,10.31,10.31h10.2v10.2c0,5.7,4.62,10.31,10.31,10.31s10.31-4.62,10.31-10.31v-30.82h-20.63Z"/>
        <path class="cls-2" d="M429.21,20.51h-10.2v-10.2c0-5.7-4.62-10.31-10.31-10.31s-10.31,4.62-10.31,10.31v30.82h30.82c5.7,0,10.31-4.62,10.31-10.31s-4.62-10.31-10.31-10.31Z"/>
      </g>
      <path class="cls-3" d="M91.97,136.04c-3.93,0-7.12-3.19-7.12-7.12v-29.13c0-9.24-7.52-16.76-16.76-16.76H23.63c-3.93,0-7.12-3.19-7.12-7.12s3.19-7.12,7.12-7.12h44.46c17.09,0,31,13.91,31,31v29.13c0,3.93-3.19,7.12-7.12,7.12Z"/>
      <path class="cls-3" d="M336.69,183.84c-3.93,0-7.12-3.19-7.12-7.12v-47.23c0-3.93,3.19-7.12,7.12-7.12s7.12,3.19,7.12,7.12v47.23c0,3.93-3.19,7.12-7.12,7.12Z"/>
      <path class="cls-3" d="M224.11,109.54h-77.05c-3.93,0-7.12-3.19-7.12-7.12s3.19-7.12,7.12-7.12h77.05c3.93,0,7.12,3.19,7.12,7.12s-3.19,7.12-7.12,7.12Z"/>
      <g>
        <g>
          <path class="cls-3" d="M108.69,183.84c-.09,0-.17,0-.26,0H7.12c-3.93,0-7.12-3.19-7.12-7.12s3.19-7.12,7.12-7.12h101.35c.06,0,.12,0,.18,0,8.39,0,17.78-3.5,25.85-9.61,8.11-6.15,13.35-16.44,17.63-25.6,4.08-8.74,7.22-18.16,9.33-28.01.82-3.84,4.61-6.29,8.45-5.47,3.84.82,6.29,4.61,5.47,8.45-2.34,10.89-5.82,21.34-10.36,31.05-5,10.71-11.23,22.81-21.93,30.92-10.49,7.95-23.02,12.5-34.41,12.5Z"/>
          <path class="cls-3" d="M184.28,169.5c-2.05,0-4.08-.88-5.48-2.58l-21.7-26.17c-2.51-3.03-2.09-7.51.94-10.02,3.03-2.51,7.51-2.09,10.02.94l21.7,26.17c2.51,3.03,2.09,7.51-.94,10.02-1.33,1.1-2.94,1.64-4.54,1.64Z"/>
        </g>
        <g>
          <path class="cls-3" d="M185.58,170.28c-1.59,0-3.18-.53-4.51-1.61-3.04-2.49-3.49-6.98-.99-10.02,5.67-6.92,10.59-14.81,14.63-23.46,4.08-8.74,7.22-18.17,9.34-28.02.82-3.84,4.61-6.3,8.45-5.47,3.84.82,6.29,4.61,5.47,8.45-2.34,10.9-5.82,21.35-10.36,31.05-4.54,9.72-10.1,18.63-16.52,26.46-1.41,1.72-3.45,2.61-5.51,2.61Z"/>
          <path class="cls-3" d="M223.38,170.28c-2.05,0-4.08-.88-5.48-2.58l-21.7-26.17c-2.51-3.03-2.09-7.51.94-10.02,3.03-2.51,7.51-2.09,10.02.94l21.7,26.17c2.51,3.03,2.09,7.51-.94,10.02-1.33,1.1-2.94,1.64-4.54,1.64Z"/>
        </g>
      </g>
      <path class="cls-3" d="M394.65,184.88h-101.06c-11.06,0-26.7-1.42-34.84-13.74-3.44-5.2-5.15-10.48-5.1-15.69v-74.24c0-3.93,3.19-7.12,7.12-7.12s7.12,3.19,7.12,7.12v74.31c-.02,2.35.92,5.01,2.74,7.76,3.32,5.02,10.61,7.35,22.96,7.35h101.06c3.93,0,7.12,3.19,7.12,7.12s-3.19,7.12-7.12,7.12Z"/>
      <path class="cls-3" d="M347.21,131.36h-21.02c-17.09,0-31-13.91-31-31v-38.65c0-3.93,3.19-7.12,7.12-7.12s7.12,3.19,7.12,7.12v38.65c0,9.24,7.52,16.76,16.76,16.76h21.02c9.24,0,16.76-7.52,16.76-16.76v-38.65c0-3.93,3.19-7.12,7.12-7.12s7.12,3.19,7.12,7.12v38.65c0,17.09-13.91,31-31,31Z"/>
      <path class="cls-3" d="M371.09,261.56h-68.79c-3.93,0-7.12-3.19-7.12-7.12v-37.63c0-3.93,3.19-7.12,7.12-7.12h68.79c3.93,0,7.12,3.19,7.12,7.12v37.63c0,3.93-3.19,7.12-7.12,7.12ZM309.42,247.33h54.55v-23.39h-54.55v23.39Z"/>
      <path class="cls-3" d="M322.88,98.36c-9.07,0-17.09-2.36-22.23-4.36-3.67-1.42-5.49-5.54-4.07-9.21,1.42-3.67,5.54-5.49,9.21-4.07,6.64,2.57,19.5,6.02,31.16.26,1.95-.97,3.82-2.17,5.55-3.58,3.05-2.48,7.53-2.02,10.02,1.03,2.48,3.05,2.02,7.53-1.03,10.01-2.55,2.08-5.32,3.86-8.23,5.3-6.89,3.41-13.91,4.61-20.38,4.61Z"/>
      <g class="cls-1">
        <path class="cls-3" d="M58.33,155.48l-24.59-12.37,9.08-18.04c3.42-6.79,11.69-9.52,18.48-6.11,3.4,1.71,5.78,4.63,6.89,7.98,1.11,3.34.94,7.11-.77,10.5l-9.08,18.04Z"/>
        <path class="cls-2" d="M33.73,143.11l24.59,12.37-9.08,18.04c-3.42,6.79-11.69,9.52-18.48,6.11-3.4-1.71-5.78-4.63-6.89-7.98-1.11-3.34-.94-7.11.77-10.5l9.08-18.04Z"/>
      </g>
      <path class="cls-3" d="M394.65,182.29h-101.06c-11.06,0-26.7-1.42-34.84-13.74-3.44-5.21-5.16-10.48-5.1-15.69v-74.24c0-3.93,3.19-7.12,7.12-7.12s7.12,3.19,7.12,7.12v74.31c-.02,2.35.92,5.01,2.74,7.76,3.32,5.02,10.61,7.35,22.96,7.35h101.06c3.93,0,7.12,3.19,7.12,7.12s-3.19,7.12-7.12,7.12Z"/>
    </g>
  </g>
</svg>